<?xml version="1.0" encoding="utf-8"?>
<!-- Generator: Adobe Illustrator 17.0.0, SVG Export Plug-In . SVG Version: 6.00 Build 0)  -->
<!DOCTYPE svg PUBLIC "-//W3C//DTD SVG 1.1//EN" "http://www.w3.org/Graphics/SVG/1.1/DTD/svg11.dtd">
<svg version="1.1" id="Layer_1" xmlns="http://www.w3.org/2000/svg" xmlns:xlink="http://www.w3.org/1999/xlink" x="0px" y="0px"
	 width="57.083px" height="42.52px" viewBox="0 0 57.083 42.52" enable-background="new 0 0 57.083 42.52" xml:space="preserve">
<g>
	<path d="M22.528,36.176h-1.624c-0.276,0-0.5-0.224-0.5-0.5s0.224-0.5,0.5-0.5h1.607c1.071,0,1.864-0.268,2.358-0.796
		c0.615-0.658,0.575-1.531,0.574-1.54l-1.773-10.101H10.464L8.519,32.893c0,0,0,0,0,0c0,0-0.11,0.877,0.449,1.52
		c0.441,0.507,1.197,0.765,2.247,0.765h6.562c0.276,0,0.5,0.224,0.5,0.5s-0.224,0.5-0.5,0.5h-6.562c-1.36,0-2.373-0.377-3.012-1.12
		c-0.861-1.001-0.678-2.279-0.67-2.333l2.025-10.579c0.05-0.26,0.289-0.436,0.554-0.402c0.021-0.002,0.042-0.004,0.063-0.004h13.907
		c0.046,0.002,0.091,0.004,0.134,0.016c0.072,0.019,0.137,0.053,0.192,0.098c0.057,0.047,0.104,0.107,0.136,0.177
		c0.019,0.041,0.032,0.085,0.04,0.131l1.851,10.559c0.01,0.105,0.083,1.361-0.835,2.343c-0.687,0.734-1.718,1.109-3.066,1.113
		C22.532,36.176,22.53,36.176,22.528,36.176z"/>
	<circle fill="#1D1D1B" cx="10.944" cy="30.379" r="0.64"/>
	<circle fill="#1D1D1B" cx="14.02" cy="33.438" r="0.64"/>
	<path fill="#1D1D1B" d="M51.73,5.957c-0.526-1.263-1.757-2.08-3.136-2.08c-0.445,0-0.88,0.086-1.292,0.256
		c-0.708,0.291-11.502,5.386-13.75,6.49l-0.069,0.034l-0.073-0.021c-0.727-0.204-1.512-0.158-2.211,0.131
		c-0.929,0.382-1.634,1.147-1.935,2.099l-0.028,0.089l-0.086,0.036l-3.411,1.405l-0.413-2.321l0.002-0.013l1.069-6.007
		c0.029-0.165-0.016-0.333-0.124-0.461c-0.108-0.128-0.268-0.202-0.437-0.202h-6.715c-0.314,0-0.569,0.253-0.569,0.564
		c0,0.813-0.665,1.475-1.482,1.475s-1.482-0.662-1.482-1.475c0-0.312-0.255-0.564-0.569-0.564H8.305
		c-0.169,0-0.328,0.073-0.437,0.202C7.76,5.722,7.715,5.89,7.744,6.055l1.071,6.021l-0.002,0.013L5.189,32.458
		c-0.291,1.636,0.095,3.185,1.086,4.361c0.992,1.176,2.459,1.824,4.13,1.824h13.33c1.672,0,3.139-0.648,4.13-1.824
		s1.378-2.725,1.087-4.361l-2.462-13.836l4.357-1.795l0.083,0.043c0.477,0.247,1.019,0.378,1.567,0.378h0
		c0.45,0,0.885-0.085,1.293-0.254c0.71-0.292,1.283-0.798,1.657-1.461l0.038-0.066l0.072-0.025
		c2.376-0.801,13.631-4.79,14.337-5.082c0.837-0.344,1.488-0.994,1.835-1.83C52.075,7.699,52.075,6.786,51.73,5.957z M27.831,32.653
		c0.232,1.303-0.065,2.524-0.838,3.44c-0.772,0.916-1.929,1.42-3.258,1.42H10.406c-1.329,0-2.485-0.504-3.258-1.42
		c-0.773-0.916-1.07-2.137-0.838-3.439L9.871,12.64h2.599c0.314,0,0.569-0.253,0.569-0.564s-0.255-0.565-0.569-0.565H9.871
		L9.86,11.448L8.983,6.521h5.525l0.042,0.146c0.319,1.115,1.355,1.894,2.521,1.894s2.202-0.779,2.521-1.894l0.042-0.146h5.525
		l-0.888,4.989h-8.726c-0.314,0-0.569,0.253-0.569,0.565s0.255,0.564,0.569,0.564h8.726l0.011,0.062l0.461,2.594
		c0,0.001,0.015,0.083,0.549,3.085C25.302,18.432,27.793,32.437,27.831,32.653z M26.288,17.482l-0.346-1.946l3.496-1.441
		l0.693,1.804L26.288,17.482z M33.357,15.95c-0.271,0.112-0.559,0.168-0.856,0.168c-0.46,0-0.902-0.135-1.278-0.391
		c-0.03-0.02-0.067-0.022-0.101-0.036l-0.847-2.205c0.001-0.006,0.006-0.01,0.007-0.016c0.142-0.749,0.647-1.37,1.353-1.66
		c0.53-0.22,1.137-0.226,1.68-0.016c0.045,0.017,0.094,0.016,0.143,0.022l1.135,2.911c-0.01,0.018-0.028,0.031-0.036,0.05
		C34.323,15.311,33.897,15.727,33.357,15.95z M50.679,8.1c-0.23,0.555-0.663,0.986-1.218,1.216
		c-0.453,0.186-11.143,3.996-13.972,4.957l-1.093-2.804c2.779-1.354,12.893-6.106,13.343-6.291c0.276-0.113,0.564-0.17,0.858-0.17
		c0.915,0,1.732,0.543,2.082,1.383C50.908,6.939,50.908,7.546,50.679,8.1z"/>
</g>
</svg>
