<?xml version="1.0" encoding="utf-8"?>
<!-- Generator: Adobe Illustrator 17.0.0, SVG Export Plug-In . SVG Version: 6.00 Build 0)  -->
<!DOCTYPE svg PUBLIC "-//W3C//DTD SVG 1.1//EN" "http://www.w3.org/Graphics/SVG/1.1/DTD/svg11.dtd">
<svg version="1.1" id="Layer_1" xmlns="http://www.w3.org/2000/svg" xmlns:xlink="http://www.w3.org/1999/xlink" x="0px" y="0px"
	 width="42.52px" height="42.52px" viewBox="0 0 42.52 42.52" enable-background="new 0 0 42.52 42.52" xml:space="preserve">
<path fill-rule="evenodd" clip-rule="evenodd" fill="#1D1D1B" d="M11.644,21.26h11.105c0.308,0,0.559,0.25,0.559,0.559v1.862
	c0,2.772-2.255,5.027-5.027,5.027c-2.043,0-3.805-1.225-4.59-2.979h-0.112c-1.54,0-2.793-1.253-2.793-2.793
	c0-0.491,0.129-0.974,0.374-1.397C11.261,21.366,11.445,21.26,11.644,21.26z M14.372,23.68c0,2.156,1.754,3.91,3.91,3.91
	s3.91-1.754,3.91-3.91v-1.303h-7.819V23.68z M13.338,24.594c-0.055-0.296-0.083-0.602-0.083-0.914v-1.303h-1.255
	c-0.063,0.178-0.095,0.367-0.095,0.559C11.904,23.778,12.528,24.476,13.338,24.594z M38.201,36.526H10.276
	c-0.308,0-0.559-0.25-0.559-0.559v-3.351c0-1.54,1.253-2.793,2.793-2.793h13.218V12.696h-3.351v2.792
	c0,0.924-0.752,1.676-1.676,1.676H18.84v0.931c0,0.309-0.25,0.559-0.559,0.559c-0.309,0-0.559-0.25-0.559-0.559v-0.931h-1.862
	c-0.728,0-1.349-0.467-1.58-1.117h-1.213v0.559c0,0.294-0.227,0.537-0.521,0.557l-8.191,0.558c-0.013,0.001-0.025,0.001-0.038,0.001
	c-0.141,0-0.277-0.053-0.381-0.15c-0.113-0.105-0.177-0.253-0.177-0.408v-3.351c0-0.155,0.064-0.302,0.177-0.408
	c0.113-0.106,0.265-0.16,0.419-0.149l8.191,0.559c0.293,0.02,0.521,0.264,0.521,0.557v0.558h1.117v-2.234H12.51
	c-1.54,0-2.793-1.253-2.793-2.793V4.319c0-0.308,0.25-0.559,0.559-0.559h27.925c0.308,0,0.558,0.25,0.558,0.559v31.649
	C38.76,36.276,38.51,36.526,38.201,36.526z M11.951,14.893l-7.074-0.482v2.155l7.074-0.482V14.893z M15.303,15.489
	c0,0.308,0.251,0.558,0.559,0.558h4.84c0.308,0,0.559-0.25,0.559-0.558v-2.792h-5.957V15.489z M37.643,4.877H10.835v5.027
	c0,0.924,0.752,1.675,1.675,1.675h13.777c0.308,0,0.559,0.25,0.559,0.559v21.596c0,0.309-0.25,0.559-0.559,0.559
	c-0.309,0-0.559-0.25-0.559-0.559v-2.793H12.51c-0.924,0-1.675,0.752-1.675,1.676v2.792h26.808V4.877z M32.244,5.994
	c1.848,0,3.351,1.503,3.351,3.351s-1.503,3.351-3.351,3.351c-1.848,0-3.351-1.503-3.351-3.351S30.396,5.994,32.244,5.994z
	 M32.803,9.904h-2.722c0.249,0.963,1.124,1.675,2.163,1.675c1.232,0,2.234-1.002,2.234-2.234c0-1.232-1.002-2.234-2.234-2.234
	c-1.039,0-1.915,0.713-2.163,1.675h2.722c0.308,0,0.558,0.25,0.558,0.559C33.361,9.654,33.111,9.904,32.803,9.904z M30.01,23.122
	c0.309,0,0.559,0.25,0.559,0.559c0,0.309-0.25,0.559-0.559,0.559s-0.559-0.25-0.559-0.559C29.451,23.372,29.701,23.122,30.01,23.122
	z M30.01,26.473c0.309,0,0.559,0.25,0.559,0.559c0,0.308-0.25,0.559-0.559,0.559s-0.559-0.25-0.559-0.559
	C29.451,26.723,29.701,26.473,30.01,26.473z M30.01,29.824c0.309,0,0.559,0.25,0.559,0.559c0,0.309-0.25,0.559-0.559,0.559
	s-0.559-0.25-0.559-0.559C29.451,30.074,29.701,29.824,30.01,29.824z M11.393,37.643h2.979c0.308,0,0.559,0.25,0.559,0.558
	c0,0.308-0.25,0.558-0.559,0.558h-2.979c-0.309,0-0.559-0.25-0.559-0.558C10.835,37.893,11.085,37.643,11.393,37.643z
	 M34.106,37.643h2.979c0.308,0,0.558,0.25,0.558,0.558c0,0.308-0.25,0.558-0.558,0.558h-2.979c-0.308,0-0.559-0.25-0.559-0.558
	C33.547,37.893,33.797,37.643,34.106,37.643z"/>
</svg>
