<?xml version="1.0" encoding="utf-8"?>
<!-- Generator: Adobe Illustrator 17.0.0, SVG Export Plug-In . SVG Version: 6.00 Build 0)  -->
<!DOCTYPE svg PUBLIC "-//W3C//DTD SVG 1.1//EN" "http://www.w3.org/Graphics/SVG/1.1/DTD/svg11.dtd">
<svg version="1.1" id="Layer_1" xmlns="http://www.w3.org/2000/svg" xmlns:xlink="http://www.w3.org/1999/xlink" x="0px" y="0px"
	 width="42.52px" height="42.52px" viewBox="0 0 42.52 42.52" enable-background="new 0 0 42.52 42.52" xml:space="preserve">
<path fill-rule="evenodd" clip-rule="evenodd" fill="#1D1D1B" d="M37.205,25.728h-2.212c-0.306,0-0.553-0.25-0.553-0.559
	c0-4.028-1.452-7.882-4.095-10.881h-4.066c3.387,2.563,5.396,6.596,5.396,10.881c0,7.494-6.037,13.591-13.457,13.591
	S4.76,32.663,4.76,25.17c0-4.341,2.063-8.423,5.531-10.981v-3.343L8.109,4.502C8.043,4.311,8.085,4.099,8.218,3.948
	C8.35,3.797,8.553,3.73,8.749,3.773l17.829,3.905c0.155,0.034,0.288,0.133,0.365,0.272c0.077,0.139,0.092,0.306,0.04,0.457
	l-0.839,2.439v0.092h5.393c0.15,0,0.293,0.061,0.397,0.17l0.326,0.34c3.535,3.689,5.487,8.546,5.497,13.68
	c0.001,0.014,0.002,0.028,0.002,0.042C37.76,25.478,37.512,25.728,37.205,25.728z M9.477,5.075l1.76,5.118h9.93
	c0.306,0,0.553,0.25,0.553,0.558c0,0.308-0.247,0.559-0.553,0.559h-9.771v2.606h13.642V11.31h-1.659
	c-0.306,0-0.553-0.25-0.553-0.559c0-0.308,0.248-0.558,0.553-0.558h1.819l0.536-1.558L9.477,5.075z M25.413,15.033H11.022
	c-3.231,2.344-5.156,6.119-5.156,10.136c0,6.878,5.541,12.474,12.351,12.474s12.351-5.596,12.351-12.474
	C30.569,21.152,28.644,17.377,25.413,15.033z M31.466,12.224l-0.163-0.17h-5.159v1.117h4.447c0.155,0,0.303,0.066,0.408,0.181
	c2.808,3.094,4.408,7.072,4.539,11.259h1.107C36.509,19.96,34.682,15.58,31.466,12.224z M29.463,25.17
	c0,6.262-5.045,11.357-11.245,11.357c-2.571,0-5.086-0.903-7.083-2.543c-0.237-0.195-0.273-0.546-0.08-0.786
	c0.193-0.239,0.541-0.276,0.778-0.081c1.8,1.478,4.068,2.292,6.385,2.292c5.396,0,9.821-4.279,10.123-9.654
	c-0.823,0.083-1.299,0.349-1.837,0.648c-0.685,0.382-1.461,0.814-2.94,0.814c-1.479,0-2.255-0.433-2.94-0.814
	c-0.65-0.362-1.212-0.675-2.406-0.675c-1.194,0-1.756,0.313-2.406,0.675c-0.685,0.382-1.461,0.814-2.94,0.814
	c-1.479,0-2.255-0.433-2.94-0.814c-0.537-0.299-1.014-0.565-1.836-0.648c0.123,2.134,0.912,4.197,2.253,5.863
	c0.193,0.239,0.157,0.591-0.08,0.786c-0.237,0.195-0.585,0.158-0.778-0.081c-1.624-2.017-2.518-4.557-2.518-7.153
	c0-0.308,0.248-0.559,0.553-0.559c1.479,0,2.255,0.433,2.94,0.814c0.65,0.362,1.212,0.675,2.406,0.675
	c1.194,0,1.755-0.313,2.406-0.675c0.685-0.382,1.461-0.814,2.94-0.814c1.479,0,2.255,0.433,2.94,0.814
	c0.65,0.362,1.212,0.675,2.406,0.675c1.194,0,1.756-0.313,2.406-0.675c0.685-0.382,1.461-0.814,2.94-0.814
	C29.215,24.611,29.463,24.861,29.463,25.17z"/>
</svg>
