<?xml version="1.0" encoding="utf-8"?>
<!-- Generator: Adobe Illustrator 17.0.0, SVG Export Plug-In . SVG Version: 6.00 Build 0)  -->
<!DOCTYPE svg PUBLIC "-//W3C//DTD SVG 1.1//EN" "http://www.w3.org/Graphics/SVG/1.1/DTD/svg11.dtd">
<svg version="1.1" id="Layer_1" xmlns="http://www.w3.org/2000/svg" xmlns:xlink="http://www.w3.org/1999/xlink" x="0px" y="0px"
	 width="42.52px" height="42.52px" viewBox="0 0 42.52 42.52" enable-background="new 0 0 42.52 42.52" xml:space="preserve">
<path fill-rule="evenodd" clip-rule="evenodd" fill="#1D1D1B" d="M33.123,9.544c-0.11-0.126-0.273-0.198-0.444-0.198h-4.533
	L21.946,6.96l0.651-2.506c0.043-0.167,0.004-0.344-0.106-0.479c-0.11-0.136-0.279-0.215-0.458-0.215h-3.871
	c-0.179,0-0.348,0.079-0.458,0.215c-0.11,0.136-0.149,0.312-0.106,0.479l0.651,2.506l-6.199,2.385H9.841
	c-0.231,0-0.439,0.131-0.532,0.334c-0.092,0.203-0.051,0.44,0.105,0.603l2.737,2.857l1.763,9.89c0.048,0.268,0.29,0.464,0.572,0.464
	h0.193v1.117h-0.193c-0.283,0-0.525,0.196-0.572,0.464l-2.322,13.032c-0.029,0.162,0.018,0.328,0.128,0.454
	c0.11,0.126,0.273,0.198,0.444,0.198h15.87c0.322,0,0.582-0.25,0.582-0.558c0-0.047-0.006-0.092-0.017-0.136l-2.315-12.99
	c-0.048-0.268-0.29-0.464-0.572-0.464h-0.194v-1.117h0.194c0.283,0,0.524-0.196,0.572-0.464l2.24-12.568h3.467l-2.123,11.915h-0.672
	c-0.321,0-0.581,0.25-0.581,0.558c0,0.308,0.26,0.559,0.581,0.559h1.161c0.283,0,0.524-0.196,0.572-0.464l2.323-13.032
	C33.28,9.836,33.233,9.669,33.123,9.544z M21.29,4.877l-0.484,1.862h-1.416l-0.484-1.862H21.29z M19.049,7.856h2.099l3.871,1.489
	h-9.84L19.049,7.856z M18.776,22.377l-0.708-11.915h4.061l-0.708,11.915H18.776z M13.267,12.788
	c-0.019-0.106-0.069-0.205-0.145-0.284l-1.956-2.042h0.985c0.002,0,0.004,0,0.005,0h4.749l0.708,11.915h-2.637L13.267,12.788z
	 M14.976,25.728h2.637l-0.286,4.81c-0.018,0.308,0.226,0.572,0.547,0.589c0.011,0.001,0.022,0.001,0.034,0.001
	c0.305,0,0.561-0.23,0.579-0.527l0.29-4.874h2.645l0.708,11.915h-4.061l0.286-4.81c0.018-0.308-0.226-0.572-0.546-0.59
	c-0.319-0.017-0.594,0.218-0.613,0.526l-0.29,4.874h-4.053L14.976,25.728z M27.345,37.643h-4.053l-0.708-11.915h2.638L27.345,37.643
	z M24.357,24.611h-8.516v-1.117h8.516V24.611z M25.222,22.377h-2.637l0.708-11.915h4.053L25.222,22.377z"/>
</svg>
