<?xml version="1.0" encoding="utf-8"?>
<!-- Generator: Adobe Illustrator 17.0.0, SVG Export Plug-In . SVG Version: 6.00 Build 0)  -->
<!DOCTYPE svg PUBLIC "-//W3C//DTD SVG 1.1//EN" "http://www.w3.org/Graphics/SVG/1.1/DTD/svg11.dtd">
<svg version="1.1" id="Layer_1" xmlns="http://www.w3.org/2000/svg" xmlns:xlink="http://www.w3.org/1999/xlink" x="0px" y="0px"
	 width="42.52px" height="42.52px" viewBox="0 0 42.52 42.52" enable-background="new 0 0 42.52 42.52" xml:space="preserve">
<path d="M32.864,35.8l-4.839-13.319h0.766c0.276,0,0.5-0.224,0.5-0.5v-2.917c0-0.276-0.224-0.5-0.5-0.5h-0.25h-0.667v-2.25h0.917
	c0.276,0,0.5-0.224,0.5-0.5v-3.056c0-0.276-0.224-0.5-0.5-0.5h-0.977l3.588-5.698c0.097-0.154,0.103-0.349,0.014-0.508
	c-0.088-0.159-0.255-0.258-0.438-0.258h-1.6l0.836-1.332c0.097-0.154,0.102-0.348,0.014-0.508c-0.088-0.159-0.255-0.258-0.438-0.258
	h-8.554c-0.019,0-0.039,0-0.059,0h-8.554c-0.183,0-0.351,0.1-0.439,0.26c-0.087,0.161-0.081,0.356,0.018,0.51l0.853,1.328h-1.578
	c-0.183,0-0.351,0.1-0.438,0.26c-0.088,0.161-0.081,0.356,0.017,0.51l3.644,5.695h-0.91c-0.276,0-0.5,0.224-0.5,0.5v3.056
	c0,0.276,0.224,0.5,0.5,0.5h0.917v2.25h-0.917c-0.276,0-0.5,0.224-0.5,0.5v2.917c0,0.276,0.224,0.5,0.5,0.5h0.703L9.676,35.748
	c-0.021,0.043-0.518,1.063,0.035,1.955c0.457,0.737,1.451,1.111,2.954,1.111l8.624,0.01c0,0,0,0,0.001,0s0,0,0.001,0l8.562-0.01
	c1.503,0,2.498-0.374,2.954-1.111C33.358,36.814,32.868,35.8,32.864,35.8z M30.072,6.793l-3.441,5.465H25.32l3.43-5.465H30.072z
	 M24.14,12.258h-5.743l-3.51-5.465H27.57L24.14,12.258z M21.178,4.696c0.02,0,0.04,0,0.059,0h7.65l-0.689,1.098H14.245L13.54,4.696
	H21.178z M12.392,6.793h1.307l3.51,5.465h-1.32L12.392,6.793z M14.291,15.314v-2.056h1.324h11.293c0.009,0,0.017-0.006,0.026-0.007
	c0.012,0.001,0.022,0.007,0.033,0.007h1.324v2.056h-0.917H15.207h-0.25H14.291z M26.874,16.314v2.25H15.707v-2.25H26.874z
	 M31.957,37.177c-0.255,0.411-1.002,0.638-2.104,0.638l-8.563,0.01l-8.625-0.01c-1.098,0-1.844-0.225-2.101-0.633
	c-0.262-0.416,0.006-0.985,0.029-1.04l4.963-13.661h2.952c0.276,0,0.5-0.224,0.5-0.5s-0.224-0.5-0.5-0.5h-4.219v-1.917h0.667h0.25
	h12.167h0.917v1.917h-7c-0.276,0-0.5,0.224-0.5,0.5s0.224,0.5,0.5,0.5h5.671l4.985,13.712C31.95,36.199,32.212,36.766,31.957,37.177
	z"/>
<path d="M30.517,35.913l-1.723-5.417c-0.084-0.263-0.367-0.411-0.628-0.325c-0.263,0.084-0.409,0.365-0.325,0.628l1.516,4.766
	h-8.066h-8.066l1.405-4.417h11.703c0.276,0,0.5-0.224,0.5-0.5s-0.224-0.5-0.5-0.5H14.264c-0.008,0-0.014,0.004-0.021,0.004
	c-0.037,0.002-0.07,0.012-0.105,0.021c-0.029,0.008-0.058,0.012-0.085,0.025c-0.028,0.013-0.05,0.033-0.075,0.051
	c-0.028,0.02-0.056,0.037-0.079,0.062c-0.019,0.021-0.032,0.046-0.048,0.071c-0.02,0.031-0.04,0.06-0.053,0.095
	c-0.003,0.007-0.009,0.012-0.011,0.02l-1.723,5.417c-0.048,0.152-0.021,0.318,0.073,0.446c0.094,0.129,0.244,0.205,0.404,0.205h8.75
	h8.75c0.16,0,0.31-0.076,0.404-0.205C30.538,36.231,30.566,36.065,30.517,35.913z"/>
</svg>
