<?xml version="1.0" encoding="utf-8"?>
<!-- Generator: Adobe Illustrator 17.0.0, SVG Export Plug-In . SVG Version: 6.00 Build 0)  -->
<!DOCTYPE svg PUBLIC "-//W3C//DTD SVG 1.1//EN" "http://www.w3.org/Graphics/SVG/1.1/DTD/svg11.dtd">
<svg version="1.1" id="Layer_1" xmlns="http://www.w3.org/2000/svg" xmlns:xlink="http://www.w3.org/1999/xlink" x="0px" y="0px"
	 width="42.52px" height="42.52px" viewBox="0 0 42.52 42.52" enable-background="new 0 0 42.52 42.52" xml:space="preserve">
<path fill-rule="evenodd" clip-rule="evenodd" fill="#1D1D1B" d="M33.598,20.234c-1.425-1.98-3.383-3.069-5.515-3.069h-1.822v-1.676
	c0-0.002,0-0.004,0-0.006c-0.014-3.434-3.534-6.251-7.972-6.48V7.778c0.897-0.244,1.556-1.034,1.556-1.97
	c0-1.129-0.959-2.048-2.139-2.048c-1.179,0-2.139,0.919-2.139,2.048c0,0.936,0.659,1.726,1.556,1.97v1.224
	c-4.197,0.216-7.574,2.748-7.939,5.928H8.178c-0.215,0-0.413,0.113-0.514,0.295c-0.102,0.182-0.09,0.402,0.029,0.573l1.457,2.093
	v2.065c0,0.309,0.261,0.559,0.583,0.559c0.322,0,0.583-0.25,0.583-0.559v-2.234c0-0.11-0.034-0.218-0.098-0.31l-0.951-1.366h0.338
	c0.041,0.009,0.084,0.014,0.128,0.014c0.044,0,0.087-0.005,0.128-0.014h7.261v10.239h-5.055c-0.322,0-0.583,0.25-0.583,0.559v9.122
	c0,0.309,0.261,0.559,0.583,0.559h11.277c0.322,0,0.583-0.25,0.583-0.559v-6.888c0-0.308-0.261-0.559-0.583-0.559
	c-0.322,0-0.583,0.25-0.583,0.559v6.33H12.65v-8.005h4.472v5.771h-2.139c-0.322,0-0.583,0.25-0.583,0.558
	c0,0.309,0.261,0.559,0.583,0.559h5.444c0.322,0,0.583-0.25,0.583-0.559c0-0.308-0.261-0.558-0.583-0.558h-2.139v-5.771h5.055
	c0.322,0,0.583-0.25,0.583-0.559c0-0.308-0.261-0.559-0.583-0.559h-5.055V16.047h6.805v21.596H10.317V22.191
	c0-0.308-0.261-0.559-0.583-0.559c-0.322,0-0.583,0.25-0.583,0.559v16.011c0,0.308,0.261,0.558,0.583,0.558h15.944
	c0.322,0,0.583-0.25,0.583-0.558v-1.675h1.822c2.132,0,4.09-1.09,5.515-3.069c1.287-1.789,1.996-4.137,1.996-6.611
	C35.594,24.371,34.885,22.023,33.598,20.234z M28.083,33.175h-1.822v-12.66h1.822c0.946,0,1.881,0.575,2.633,1.62
	c0.889,1.235,1.378,2.908,1.378,4.71c0,1.802-0.49,3.475-1.378,4.71C29.964,32.6,29.029,33.175,28.083,33.175z M27.5,18.281v1.117
	h-1.239v-1.117H27.5z M16.734,5.808c0-0.513,0.436-0.931,0.972-0.931c0.536,0,0.972,0.418,0.972,0.931s-0.436,0.931-0.972,0.931
	C17.17,6.739,16.734,6.321,16.734,5.808z M17.706,10.104c3.809,0,6.955,2.118,7.347,4.826h-7.346c-0.001,0-7.348,0-7.348,0
	C10.751,12.221,13.896,10.104,17.706,10.104z M26.261,34.292H27.5v1.117h-1.239V34.292z M32.637,32.823
	c-1.065,1.479-2.458,2.369-3.971,2.551v-1.129c1.125-0.184,2.177-0.897,3.01-2.055c1.022-1.42,1.584-3.317,1.584-5.344
	c0-2.026-0.563-3.924-1.584-5.344c-0.833-1.158-1.885-1.871-3.01-2.055v-1.13c1.513,0.182,2.906,1.071,3.971,2.551
	c1.155,1.604,1.79,3.727,1.79,5.978C34.428,29.095,33.792,31.218,32.637,32.823z"/>
</svg>
