<?xml version="1.0" encoding="utf-8"?>
<!-- Generator: Adobe Illustrator 17.0.0, SVG Export Plug-In . SVG Version: 6.00 Build 0)  -->
<!DOCTYPE svg PUBLIC "-//W3C//DTD SVG 1.1//EN" "http://www.w3.org/Graphics/SVG/1.1/DTD/svg11.dtd">
<svg version="1.1" id="Layer_1" xmlns="http://www.w3.org/2000/svg" xmlns:xlink="http://www.w3.org/1999/xlink" x="0px" y="0px"
	 width="28.35px" height="22.68px" viewBox="0 0 28.35 22.68" enable-background="new 0 0 28.35 22.68" xml:space="preserve">
<path fill-rule="evenodd" clip-rule="evenodd" fill="#1D1D1B" d="M18.28,14.345c1.216-1.392,1.884-3.179,1.884-5.042
	c0-4.199-3.365-7.616-7.5-7.616c-4.136,0-7.5,3.417-7.5,7.616c0,4.199,3.365,7.616,7.5,7.616c1.586,0,3.158-0.525,4.439-1.481
	l4.943,5.221l1.141-1.141L18.28,14.345z M12.664,15.307c-3.252,0-5.899-2.693-5.899-6.004c0-3.311,2.646-6.004,5.899-6.004
	c3.253,0,5.9,2.694,5.9,6.004C18.563,12.614,15.917,15.307,12.664,15.307z"/>
</svg>
