<svg id="Слой_5" data-name="Слой 5" xmlns="http://www.w3.org/2000/svg" viewBox="0 0 189.74 189.74"><defs><style>.cls-1,.cls-2,.cls-4{fill:none;}.cls-1{stroke:#231f20;stroke-miterlimit:10;stroke-width:9.77px;}.cls-2{stroke:#6d6e71;stroke-width:3px;}.cls-2,.cls-4{stroke-linecap:round;stroke-linejoin:round;}.cls-3{fill:#58595b;}.cls-4{stroke:#58595b;stroke-width:3.36px;}</style></defs><title>logoB</title><path class="cls-1" d="M558,395.25" transform="translate(-450.78 -378.59)"/><circle class="cls-2" cx="94.87" cy="94.87" r="93.37"/><path class="cls-3" d="M595,477.28a42.75,42.75,0,0,0-22.72-22.72,41.39,41.39,0,0,0-16.4-3.3,8.82,8.82,0,0,0-1.23.09,8.46,8.46,0,0,1-1.23.09,26.31,26.31,0,0,0,6.22-8.39,23.83,23.83,0,0,0,2.26-10.27,24.1,24.1,0,0,0-1.89-9.52,25.44,25.44,0,0,0-5.18-7.82,25.1,25.1,0,0,0-7.64-5.37,24.69,24.69,0,0,0-9.43-2.17H515.18a1.7,1.7,0,1,0,0,3.39H537a20.64,20.64,0,0,1,8.39,1.7,22,22,0,0,1,11.41,11.41,20.64,20.64,0,0,1,1.7,8.39,21.12,21.12,0,0,1-3.58,12,20.62,20.62,0,0,1-9.61,7.82l-3.68,1.3,1.12,3.05a38.7,38.7,0,0,1,28.29.83,39.81,39.81,0,0,1,20.74,20.74,38.58,38.58,0,0,1,0,30.35,39.81,39.81,0,0,1-20.74,20.74,37.27,37.27,0,0,1-15.18,3.11h-39V436.37a1.7,1.7,0,1,0-3.39,0v98a1.5,1.5,0,0,0,1.7,1.7H555.9a41.34,41.34,0,0,0,16.4-3.3A43,43,0,0,0,595,510.18,42.65,42.65,0,0,0,595,477.28Z" transform="translate(-450.78 -378.59)"/><path class="cls-4" d="M548,453.5c-15.84,3-21.07,16.7-19.7,33.35C530,507.17,552,524.93,567.5,513.32c2.6-1.95,4.23-7.43,2.16-12.42-1.52-3.67-5-6.65-10.37-9.08-18.2-8.23-20.61-19.44-20-27.68C540,453.77,550.4,453,550.4,453" transform="translate(-450.78 -378.59)"/><path class="cls-4" d="M562.89,487.15c-6.32-2.88-13.47-6.8-16.63-12.1-1-1.65-4-10.36.76-14.65,7.25-6.5,21.38-1.12,29.75,11.61,3,4.63,6,14.66,5.25,22.89s-4.89,13.53-5.57,13.51C572.53,508.33,579.9,494.89,562.89,487.15Z" transform="translate(-450.78 -378.59)"/></svg>